<?xml version="1.0" standalone="no"?>
<!DOCTYPE svg PUBLIC "-//W3C//DTD SVG 20010904//EN"
 "http://www.w3.org/TR/2001/REC-SVG-20010904/DTD/svg10.dtd">
<svg version="1.0" xmlns="http://www.w3.org/2000/svg"
 width="300.000000pt" height="300.000000pt" viewBox="0 0 300.000000 300.000000"
 preserveAspectRatio="xMidYMid meet">
<metadata>
Created by potrace 1.11, written by Peter Selinger 2001-2013
</metadata>
<g transform="translate(0.000000,300.000000) scale(0.100000,-0.100000)"
fill="#000000" stroke="none">
<path d="M0 2409 c0 -12 11 -16 48 -18 26 -1 60 -4 77 -6 16 -2 72 -7 125 -10
52 -3 111 -8 130 -10 19 -3 73 -7 120 -10 83 -5 138 -9 250 -20 30 -3 91 -7
135 -10 167 -11 212 -15 285 -21 41 -3 76 -7 78 -8 1 -2 4 -22 6 -45 2 -23 7
-45 10 -48 3 -3 1 -14 -5 -25 -7 -13 -7 -23 -1 -31 6 -7 13 -43 16 -82 3 -38
8 -81 11 -95 3 -14 7 -56 10 -95 3 -38 8 -83 10 -100 2 -16 7 -60 10 -96 3
-36 7 -81 10 -100 9 -67 22 -189 30 -274 3 -27 7 -66 10 -85 2 -19 7 -62 10
-95 3 -33 7 -76 10 -95 2 -19 7 -57 10 -85 3 -27 8 -68 10 -90 14 -118 17
-144 20 -185 5 -58 14 -140 19 -165 3 -11 5 -25 5 -32 1 -7 7 -10 14 -7 10 4
13 41 11 167 -1 89 -2 529 -3 978 l-1 816 -735 -1 c-670 0 -735 -2 -735 -17z"/>
<path d="M1515 2421 c-10 -9 -5 -1950 4 -1956 14 -8 21 9 26 62 3 26 7 66 10
88 2 22 7 65 10 95 3 30 8 71 10 90 3 19 7 62 11 95 3 33 7 76 9 95 2 19 6 60
9 90 3 30 8 75 11 100 12 94 13 107 20 180 3 41 8 86 10 100 5 27 12 92 20
180 3 30 7 71 10 90 2 19 7 67 11 105 3 39 8 78 10 88 2 10 6 48 9 85 4 37 8
78 10 92 2 14 7 61 10 105 4 44 10 83 13 87 8 8 74 15 212 23 52 3 113 8 135
10 21 2 82 7 135 11 125 8 164 11 230 18 30 3 87 8 125 10 224 17 363 28 385
31 14 2 29 4 33 4 5 1 7 7 5 14 -4 9 -161 12 -742 12 -405 1 -739 -1 -741 -4z"/>
</g>
</svg>
